<svg width="597" height="597" viewBox="0 0 597 597" fill="none" xmlns="http://www.w3.org/2000/svg">
<path d="M373.005 91.7534L374.01 93.7751L542.679 431.091C548.01 442.142 551.001 454.544 551.001 467.653C551.001 514.234 513.25 551.985 466.669 551.985C434.643 551.985 406.796 534.141 392.519 507.855L392.336 507.509C391.56 506.095 390.853 504.666 390.183 503.199L390.167 503.152L223.436 169.753L223.353 169.591C222.876 168.7 222.415 167.8 221.986 166.894L221.823 166.548C216.591 155.576 213.664 143.305 213.664 130.347C213.664 98.0121 231.858 69.9347 258.553 55.7886C259.689 55.1811 260.821 54.605 261.973 54.076L262.088 54.0079C272.976 48.8753 285.148 46 297.995 46C330.682 45.9948 359.005 64.5821 373.005 91.7534Z" fill="#00BAB9"/>
<path d="M213.669 467.664C213.669 514.245 175.913 551.995 129.337 551.995C82.756 551.995 45 514.245 45 467.664C45 421.088 82.756 383.332 129.337 383.332C175.913 383.332 213.669 421.088 213.669 467.664Z" fill="#00BAB9"/>
</svg>
